<svg width="26" height="26" viewBox="0 0 26 26" fill="none" xmlns="http://www.w3.org/2000/svg">
<path d="M1.08334 2.70825H2.98759C3.46598 2.70825 3.70517 2.70825 3.89962 2.79499C4.07105 2.87146 4.21749 2.99463 4.3222 3.15042C4.44098 3.32714 4.48196 3.56279 4.56393 4.03411L4.99276 6.49992M4.99276 6.49992L5.99174 12.244C6.17092 13.2743 6.26051 13.7894 6.52584 14.1605C6.75946 14.4873 7.08607 14.7361 7.46312 14.8746C7.89134 15.0319 8.41177 14.9816 9.45265 14.8808L20.3999 13.8214C21.4212 13.7226 21.9319 13.6732 22.3178 13.4425C22.6578 13.2393 22.9297 12.9397 23.0992 12.5818C23.2917 12.1754 23.2917 11.6624 23.2917 10.6363V10.1483C23.2917 9.05774 23.2917 8.51248 23.0817 8.09113C22.8969 7.72036 22.6015 7.41612 22.2364 7.22044C21.8214 6.99806 21.2764 6.98193 20.1864 6.94966L4.99276 6.49992Z" stroke="#454747" stroke-width="1.8" stroke-linecap="round" stroke-linejoin="round"/>
<circle cx="9.20832" cy="20.5834" r="2.16667" stroke="#454747" stroke-width="1.8"/>
<ellipse cx="19.5" cy="20.5834" rx="2.16667" ry="2.16667" stroke="#454747" stroke-width="1.8"/>
</svg>
