<svg width="60" height="60" viewBox="0 0 60 60" fill="none" xmlns="http://www.w3.org/2000/svg">
<circle cx="30" cy="30" r="30" fill="white"/>
<ellipse cx="30" cy="29.9999" rx="20" ry="20" fill="#454747"/>
<path d="M31.402 28.7C32.6287 28.9 33.5687 29.36 34.222 30.08C34.8754 30.7867 35.202 31.6667 35.202 32.72C35.202 33.5333 34.9887 34.2867 34.562 34.98C34.1354 35.66 33.482 36.2067 32.602 36.62C31.7354 37.0333 30.6687 37.24 29.402 37.24C28.4154 37.24 27.442 37.1133 26.482 36.86C25.5354 36.5933 24.7287 36.22 24.062 35.74L25.322 33.26C25.8554 33.66 26.4687 33.9733 27.162 34.2C27.8687 34.4133 28.5887 34.52 29.322 34.52C30.1354 34.52 30.7754 34.3667 31.242 34.06C31.7087 33.74 31.942 33.2933 31.942 32.72C31.942 31.5733 31.0687 31 29.322 31H27.842V28.86L30.722 25.6H24.762V23H34.562V25.1L31.402 28.7Z" fill="white"/>
</svg>
