<svg width="45" height="45" viewBox="0 0 45 45" fill="none" xmlns="http://www.w3.org/2000/svg">
<circle cx="22.5" cy="22.5" r="22.5" fill="#F3F3F3"/>
<circle cx="22.5" cy="22.5" r="12.5" fill="#222222"/>
<path d="M18.5712 27V25.425L22.6212 21.6C22.9412 21.31 23.1762 21.05 23.3262 20.82C23.4762 20.59 23.5762 20.38 23.6262 20.19C23.6862 20 23.7162 19.825 23.7162 19.665C23.7162 19.245 23.5712 18.925 23.2812 18.705C23.0012 18.475 22.5862 18.36 22.0362 18.36C21.5962 18.36 21.1862 18.445 20.8062 18.615C20.4362 18.785 20.1212 19.05 19.8612 19.41L18.0912 18.27C18.4912 17.67 19.0512 17.195 19.7712 16.845C20.4912 16.495 21.3212 16.32 22.2612 16.32C23.0412 16.32 23.7212 16.45 24.3012 16.71C24.8912 16.96 25.3462 17.315 25.6662 17.775C25.9962 18.235 26.1612 18.785 26.1612 19.425C26.1612 19.765 26.1162 20.105 26.0262 20.445C25.9462 20.775 25.7762 21.125 25.5162 21.495C25.2662 21.865 24.8962 22.28 24.4062 22.74L21.0462 25.905L20.5812 25.02H26.5062V27H18.5712Z" fill="white"/>
</svg>
