<svg width="60" height="60" viewBox="0 0 60 60" fill="none" xmlns="http://www.w3.org/2000/svg">
<circle cx="30" cy="30" r="30" fill="white"/>
<ellipse cx="30" cy="29.9999" rx="20" ry="20" fill="#454747"/>
<path d="M35.3416 34.36V37H24.7616V34.9L30.1616 29.8C30.7349 29.2533 31.1216 28.7867 31.3216 28.4C31.5216 28 31.6216 27.6067 31.6216 27.22C31.6216 26.66 31.4282 26.2333 31.0416 25.94C30.6682 25.6333 30.1149 25.48 29.3816 25.48C28.7682 25.48 28.2149 25.6 27.7216 25.84C27.2282 26.0667 26.8149 26.4133 26.4816 26.88L24.1216 25.36C24.6682 24.5467 25.4216 23.9133 26.3816 23.46C27.3416 22.9933 28.4416 22.76 29.6816 22.76C30.7216 22.76 31.6282 22.9333 32.4016 23.28C33.1882 23.6133 33.7949 24.0933 34.2216 24.72C34.6616 25.3333 34.8816 26.06 34.8816 26.9C34.8816 27.66 34.7216 28.3733 34.4016 29.04C34.0816 29.7067 33.4616 30.4667 32.5416 31.32L29.3216 34.36H35.3416Z" fill="white"/>
</svg>
