<svg width="36" height="40" viewBox="0 0 36 40" fill="none" xmlns="http://www.w3.org/2000/svg">
<path d="M30.9101 2.34375C30.0561 2.34375 29.2555 2.57414 28.5651 2.97437V1.17188C28.5651 0.524687 28.0401 0 27.3926 0H8.63222C7.9846 0 7.45962 0.524687 7.45962 1.17188V2.98867C6.76369 2.57953 5.95395 2.34375 5.0898 2.34375C2.50369 2.34375 0.399719 4.44656 0.399719 7.03125C0.399719 9.00273 0.98426 10.9077 2.0901 12.5402C3.9727 15.3193 6.29422 16.0405 8.2152 16.8084C9.32284 19.5653 11.5627 21.7502 14.3569 22.7846L13.4922 28.2812H13.3223C11.3827 28.2812 9.80474 29.8584 9.80474 31.7969V37.6562H8.63222C7.98468 37.6562 7.4597 38.1809 7.4597 38.8281C7.4597 39.4753 7.98468 40 8.63222 40H27.3926C28.0401 40 28.5651 39.4753 28.5651 38.8281C28.5651 38.1809 28.0401 37.6562 27.3926 37.6562H26.22V31.7969C26.22 29.8584 24.6421 28.2812 22.7025 28.2812H22.5325L21.668 22.7847C24.4662 21.7487 26.7086 19.5591 27.8146 16.7966C29.6293 16.0711 32.008 15.3478 33.9099 12.5402C35.0157 10.9077 35.6003 9.00266 35.6003 7.03125C35.6002 4.44656 33.4962 2.34375 30.9101 2.34375ZM7.45095 13.9787C4.59203 12.8357 2.74476 10.1087 2.74476 7.03125C2.74476 5.73891 3.79675 4.6875 5.0898 4.6875C6.38286 4.6875 7.43484 5.73891 7.43484 7.03125C7.43484 7.11367 7.44352 7.19398 7.4597 7.27156V12.8906C7.4597 13.2673 7.47995 13.6392 7.51872 14.0058L7.45095 13.9787ZM23.875 37.6562H12.1498V35.3125H23.875V37.6562ZM22.7025 30.625C23.349 30.625 23.875 31.1507 23.875 31.7969V32.9688H12.1498V31.7969C12.1498 31.1507 12.6758 30.625 13.3223 30.625C13.9584 30.625 21.2106 30.625 22.7025 30.625ZM15.8661 28.2812L16.6419 23.3487C17.0906 23.4071 17.548 23.4375 18.0124 23.4375C18.4768 23.4375 18.9341 23.407 19.3828 23.3487L20.1587 28.2812H15.8661ZM26.22 12.8906C26.22 17.4138 22.5381 21.0938 18.0124 21.0938C13.4867 21.0938 9.80474 17.4138 9.80474 12.8906V7.03125H26.22V12.8906ZM26.22 4.6875H9.80474V2.34375H26.22V4.6875ZM28.5489 13.9787L28.5072 13.9953C28.5452 13.6322 28.565 13.2637 28.565 12.8906V7.03125C28.5651 5.73891 29.6171 4.6875 30.9101 4.6875C32.2032 4.6875 33.2552 5.73891 33.2552 7.03125C33.2552 10.1087 31.4079 12.8358 28.5489 13.9787Z" fill="#454747"/>
</svg>
