<svg width="40" height="40" viewBox="0 0 40 40" fill="none" xmlns="http://www.w3.org/2000/svg">
<path d="M36.4715 15.9752C36.2085 7.12165 28.9211 0 20 0C11.0789 0 3.79154 7.12165 3.52842 15.9752L2.34322 17.1598V25.1932L3.52033 26.3696V31.8431C3.52033 35.0435 6.12538 37.6471 9.32746 37.6471H10.7855C11.2714 39.0164 12.5798 40 14.1144 40H16.4686C18.0042 40 19.3133 39.015 19.7985 37.6442C19.8657 37.6454 19.9331 37.6471 20 37.6471C25.6845 37.6471 30.4409 33.5987 31.5345 28.2353H34.613L37.6568 25.1932V17.1598L36.4715 15.9752ZM20 2.35294C26.9867 2.35294 32.804 7.44933 33.9281 14.1176H31.5345C30.4409 8.7542 25.6845 4.70588 20 4.70588C14.3155 4.70588 9.55911 8.7542 8.46549 14.1176H6.07186C7.19601 7.44933 13.0133 2.35294 20 2.35294ZM29.119 14.1176C25.3138 14.1063 22.6261 14.3379 20.4101 11.1004L19.3341 9.52839L18.4093 11.1938C17.0619 13.6204 15.2473 14.1176 12.9373 14.1176H10.881C11.929 10.0629 15.6201 7.05882 20 7.05882C24.3799 7.05882 28.071 10.0629 29.119 14.1176ZM8.22881 25.8824H6.36214L4.69745 24.2186V18.1344L6.36214 16.4706H8.22881V25.8824ZM5.87457 31.8431V28.2353H8.46321C8.90636 30.4294 9.96663 32.4435 11.5374 34.0611C11.2081 34.4127 10.9498 34.8311 10.7855 35.2941H9.32746C7.4235 35.2941 5.87457 33.746 5.87457 31.8431ZM16.4686 37.6471H14.1144C13.4653 37.6471 12.9373 37.1194 12.9373 36.4706C12.9373 35.8219 13.4653 35.2941 14.1144 35.2941H16.4686C17.1177 35.2941 17.6458 35.8219 17.6458 36.4706C17.6458 37.1194 17.1177 37.6471 16.4686 37.6471ZM29.417 25.8824C29.417 31.072 25.1925 35.2941 20 35.2941C19.9325 35.2941 19.8645 35.2928 19.7965 35.2912C19.3098 33.9234 18.0021 32.9412 16.4686 32.9412C14.0516 32.9465 14.0902 32.9291 13.7889 32.9568C11.7453 31.1665 10.583 28.6166 10.583 25.8824V16.4706H12.9373C15.0206 16.4706 17.5576 16.1273 19.5215 13.7384C22.1128 16.4524 25.2794 16.4706 28.122 16.4706H29.417V25.8824ZM35.3026 24.2186L33.6379 25.8824H31.7712V16.4706H33.6379L35.3026 18.1344V24.2186Z" fill="#454747"/>
</svg>
