<svg width="34" height="34" viewBox="0 0 34 34" fill="none" xmlns="http://www.w3.org/2000/svg">
<rect width="34" height="34" rx="17" fill="#454747"/>
<path d="M8.75 9.875H9.65424C10.1326 9.875 10.3718 9.875 10.5663 9.96174C10.7377 10.0382 10.8841 10.1614 10.9889 10.3172C11.1076 10.4939 11.1486 10.7295 11.2306 11.2009L11.4565 12.5M11.4565 12.5L11.9917 15.5774C12.1709 16.6077 12.2605 17.1228 12.5258 17.4939C12.7595 17.8207 13.0861 18.0695 13.4631 18.208C13.8913 18.3654 14.4118 18.315 15.4526 18.2143L21.9605 17.5845C22.2954 17.5521 22.4629 17.5358 22.6046 17.5009C23.3934 17.306 23.9859 16.6534 24.1038 15.8495C24.125 15.7051 24.125 15.5369 24.125 15.2004V15.2004C24.125 14.8429 24.125 14.6641 24.1019 14.5133C23.9727 13.6714 23.3244 13.0037 22.4867 12.8497C22.3367 12.8221 22.158 12.8168 21.8006 12.8062L11.4565 12.5Z" stroke="white" stroke-width="1.8" stroke-linecap="round" stroke-linejoin="round"/>
<ellipse cx="14.375" cy="22.25" rx="1.5" ry="1.5" stroke="white" stroke-width="1.8"/>
<ellipse cx="21.5" cy="22.25" rx="1.5" ry="1.5" stroke="white" stroke-width="1.8"/>
</svg>
