<svg width="45" height="45" viewBox="0 0 45 45" fill="none" xmlns="http://www.w3.org/2000/svg">
<circle cx="22.5" cy="22.5" r="22.5" fill="#F3F3F3"/>
<circle cx="22.5" cy="22.5" r="12.5" fill="#222222"/>
<path d="M22.0515 27.18C21.3215 27.18 20.5965 27.085 19.8765 26.895C19.1565 26.695 18.5465 26.415 18.0465 26.055L18.9915 24.195C19.3915 24.485 19.8565 24.715 20.3865 24.885C20.9165 25.055 21.4515 25.14 21.9915 25.14C22.6015 25.14 23.0815 25.02 23.4315 24.78C23.7815 24.54 23.9565 24.21 23.9565 23.79C23.9565 23.39 23.8015 23.075 23.4915 22.845C23.1815 22.615 22.6815 22.5 21.9915 22.5H20.8815V20.895L23.8065 17.58L24.0765 18.45H18.5715V16.5H25.9215V18.075L23.0115 21.39L21.7815 20.685H22.4865C23.7765 20.685 24.7515 20.975 25.4115 21.555C26.0715 22.135 26.4015 22.88 26.4015 23.79C26.4015 24.38 26.2465 24.935 25.9365 25.455C25.6265 25.965 25.1515 26.38 24.5115 26.7C23.8715 27.02 23.0515 27.18 22.0515 27.18Z" fill="white"/>
</svg>
