<svg width="57" height="57" viewBox="0 0 57 57" fill="none" xmlns="http://www.w3.org/2000/svg">
<path fill-rule="evenodd" clip-rule="evenodd" d="M28.5 57C44.2401 57 57 44.2401 57 28.5C57 12.7599 44.2401 0 28.5 0C12.7599 0 0 12.7599 0 28.5C0 44.2401 12.7599 57 28.5 57ZM27.4152 13.0587C28.2158 12.0187 29.7842 12.0187 30.5848 13.0587L43.8418 30.28C44.8541 31.5951 43.9166 33.4999 42.257 33.4999H36V41.9999C36 43.1046 35.1046 43.9999 34 43.9999H24C22.8954 43.9999 22 43.1046 22 41.9999V33.4999H15.743C14.0834 33.4999 13.1459 31.5951 14.1582 30.28L27.4152 13.0587Z" fill="#B2BFB0" fill-opacity="0.5"/>
</svg>
